<?xml version="1.0" standalone="no"?>
<!DOCTYPE svg PUBLIC "-//W3C//DTD SVG 20010904//EN"
 "http://www.w3.org/TR/2001/REC-SVG-20010904/DTD/svg10.dtd">
<svg version="1.0" xmlns="http://www.w3.org/2000/svg"
 width="2350.000000pt" height="2350.000000pt" viewBox="0 0 2350.000000 2350.000000"
 preserveAspectRatio="xMidYMid meet">
<metadata>
Created by potrace 1.11, written by Peter Selinger 2001-2013
</metadata>
<g transform="translate(0.000000,2350.000000) scale(0.100000,-0.100000)"
fill="#000000" stroke="none">
<path d="M11422 23027 c-5 -7 -60 -131 -122 -277 -61 -146 -118 -278 -125
-295 -8 -16 -28 -64 -45 -105 -17 -41 -37 -88 -45 -105 -7 -16 -91 -212 -185
-435 -95 -223 -180 -423 -190 -445 -10 -22 -49 -114 -88 -205 -211 -498 -416
-980 -432 -1015 -10 -22 -37 -85 -60 -140 -23 -55 -55 -131 -72 -170 -17 -38
-36 -83 -43 -100 -7 -16 -119 -279 -249 -583 -130 -305 -236 -555 -236 -558 0
-2 -16 -38 -35 -80 -19 -41 -35 -77 -35 -79 0 -3 -11 -29 -25 -59 -14 -30 -25
-57 -25 -60 0 -5 -24 -60 -71 -163 -10 -24 -19 -46 -19 -49 0 -4 -9 -25 -19
-48 -11 -23 -26 -57 -34 -76 -55 -128 -343 -803 -377 -885 -23 -55 -50 -118
-60 -140 -10 -22 -122 -285 -250 -585 -263 -619 -251 -589 -279 -652 -11 -26
-21 -50 -21 -53 0 -2 -11 -28 -24 -57 -13 -29 -50 -114 -81 -188 -31 -74 -63
-148 -70 -165 -7 -16 -73 -169 -145 -340 -73 -170 -138 -323 -146 -340 -21
-48 -84 -196 -104 -245 -19 -48 -632 -1485 -654 -1535 -8 -16 -58 -133 -111
-260 -54 -126 -108 -255 -122 -285 -14 -30 -33 -76 -43 -101 -10 -26 -28 -66
-38 -90 -11 -24 -66 -152 -122 -284 -56 -132 -108 -253 -115 -270 -8 -16 -105
-244 -216 -505 -111 -261 -210 -493 -220 -515 -9 -22 -111 -258 -224 -525
-114 -267 -213 -498 -220 -515 -7 -16 -28 -64 -45 -105 -32 -76 -41 -98 -78
-180 -11 -25 -36 -84 -56 -133 -20 -48 -45 -106 -55 -130 -11 -23 -66 -150
-122 -282 -56 -132 -110 -258 -120 -279 -11 -22 -19 -43 -19 -47 0 -4 -16 -41
-35 -82 -19 -41 -35 -77 -35 -81 0 -3 -12 -31 -26 -63 -65 -143 -74 -164 -74
-170 0 -3 -10 -27 -21 -52 -23 -49 -48 -104 -72 -161 -59 -139 -233 -543 -249
-580 -11 -25 -26 -58 -33 -75 -28 -66 -139 -322 -155 -360 -10 -22 -37 -85
-60 -140 -61 -143 -386 -890 -415 -953 -14 -29 -25 -55 -25 -58 0 -3 -12 -31
-26 -62 -15 -31 -66 -147 -114 -257 -76 -173 -223 -504 -280 -630 -10 -22 -38
-85 -63 -140 -49 -109 -83 -183 -123 -273 -15 -31 -39 -84 -54 -117 -55 -121
-74 -162 -120 -260 -305 -650 -478 -977 -677 -1280 -95 -144 -302 -429 -349
-480 -11 -11 -34 -38 -53 -60 -302 -356 -662 -588 -1114 -716 -23 -7 -46 -14
-52 -15 -25 -8 -209 -53 -233 -58 -15 -3 -81 -16 -147 -30 -66 -13 -136 -27
-155 -30 -19 -3 -44 -7 -55 -10 -11 -2 -40 -7 -65 -11 -48 -8 -89 -15 -105
-19 -13 -3 -108 -20 -117 -21 -3 0 -10 -3 -14 -7 -5 -6 -9 -428 -5 -550 1 -17
174 -18 3486 -18 l3485 0 0 38 c1 127 -1 546 -3 548 -1 1 -103 4 -227 8 -124
3 -241 8 -260 11 -19 2 -73 10 -120 16 -124 17 -122 16 -160 23 -48 8 -80 14
-180 32 -47 9 -94 17 -105 19 -157 26 -584 141 -695 188 -181 76 -318 180
-462 349 -141 166 -236 352 -289 563 -32 126 -33 365 -4 530 22 118 95 382
154 555 81 235 227 624 275 733 14 31 26 61 27 65 5 21 280 695 338 827 17 39
41 94 245 575 113 267 206 491 206 498 0 7 5 12 10 12 6 0 10 6 10 13 0 6 23
66 51 132 94 221 432 1019 474 1120 23 55 81 193 129 306 l87 206 4283 -1
4283 0 17 -39 c20 -46 323 -775 371 -892 18 -44 89 -215 158 -380 69 -165 153
-367 187 -450 34 -82 67 -163 74 -180 7 -16 32 -75 54 -130 23 -55 89 -217
148 -360 171 -418 489 -1227 525 -1335 4 -14 22 -63 39 -110 73 -194 233 -691
255 -790 1 -8 14 -64 28 -125 39 -173 48 -218 62 -338 13 -112 13 -369 0 -482
-12 -99 -53 -246 -90 -322 -91 -184 -305 -409 -505 -530 -114 -69 -392 -179
-495 -196 -16 -3 -59 -12 -95 -20 -36 -9 -83 -18 -105 -21 -23 -4 -50 -8 -60
-10 -11 -2 -45 -7 -75 -11 -30 -4 -62 -9 -70 -10 -8 -1 -49 -6 -90 -10 -41 -3
-86 -8 -100 -10 -14 -2 -65 -7 -115 -10 -49 -4 -106 -8 -125 -10 -19 -2 -73
-6 -120 -9 -104 -8 -163 -16 -170 -23 -3 -2 -5 -130 -5 -284 l0 -279 4375 0
4375 0 0 289 c0 159 -2 292 -5 295 -3 2 -82 6 -175 7 -93 2 -192 6 -220 11
-27 4 -68 10 -90 13 -22 2 -51 7 -65 10 -14 2 -47 9 -75 15 -27 6 -59 12 -70
14 -151 30 -470 130 -685 215 -188 75 -522 264 -615 348 -11 10 -43 36 -70 58
-67 53 -238 224 -311 310 -32 39 -61 72 -64 75 -14 13 -194 264 -215 300 -6
10 -17 26 -25 35 -8 9 -19 25 -25 35 -5 10 -48 81 -94 157 -137 225 -272 476
-458 853 -96 195 -178 364 -183 375 -5 11 -29 63 -53 115 -60 128 -97 208
-174 380 -36 80 -74 165 -85 190 -23 51 -96 217 -200 455 -114 262 -344 802
-532 1250 -97 231 -185 440 -196 465 -10 25 -49 117 -86 205 -36 88 -73 176
-81 195 -8 19 -19 44 -23 55 -4 11 -15 36 -23 55 -8 19 -131 312 -272 650
-141 338 -279 667 -305 730 -27 63 -85 203 -130 310 -44 107 -85 204 -89 215
-5 11 -16 36 -24 55 -8 19 -54 130 -102 245 -48 116 -129 309 -180 430 -51
121 -161 384 -245 585 -84 201 -158 379 -165 395 -8 17 -26 59 -40 95 -29 71
-44 106 -69 162 -9 20 -16 39 -16 42 0 3 -9 25 -19 49 -11 23 -61 141 -111
262 -90 214 -101 242 -133 315 -51 120 -117 279 -117 284 0 3 -11 29 -24 58
-30 68 -53 122 -176 418 -56 135 -109 261 -117 280 -29 67 -41 95 -63 150 -25
63 -32 79 -58 140 -23 52 -432 1030 -502 1200 -59 141 -177 424 -195 465 -25
58 -114 272 -230 550 -64 154 -122 294 -130 310 -7 17 -36 84 -63 150 -28 66
-109 262 -182 435 -73 173 -142 340 -155 370 -35 87 -75 182 -90 215 -13 28
-75 176 -285 680 -50 121 -98 234 -105 250 -12 28 -26 64 -30 75 -1 3 -13 31
-28 64 -15 32 -27 60 -27 62 0 2 -25 64 -56 136 -30 73 -72 171 -91 218 -20
47 -44 103 -53 125 -10 22 -93 220 -185 440 -91 220 -172 414 -180 430 -7 17
-23 54 -35 84 -11 30 -29 73 -39 95 -10 23 -58 136 -106 251 -48 116 -95 228
-105 250 -9 22 -23 54 -30 70 -6 17 -53 127 -102 245 -50 118 -112 267 -138
330 -67 162 -569 1361 -580 1385 -20 44 -220 521 -277 660 -14 33 -31 74 -38
90 -46 105 -95 227 -95 235 0 6 -8 10 -17 11 -10 0 -26 2 -36 4 -23 4 -179 13
-347 20 -69 3 -137 7 -152 9 -15 2 -31 -1 -36 -7z m-507 -5329 c85 -202 98
-233 120 -280 8 -18 23 -55 34 -83 10 -27 29 -72 42 -100 12 -27 23 -52 24
-55 2 -6 6 -14 69 -165 26 -60 51 -119 56 -130 5 -11 82 -193 170 -405 89
-212 167 -398 175 -415 15 -34 27 -61 80 -190 21 -49 45 -108 55 -130 10 -22
46 -107 80 -190 34 -82 68 -163 76 -180 7 -16 57 -133 109 -260 53 -126 103
-243 110 -260 8 -16 66 -156 130 -310 64 -154 125 -298 135 -320 9 -22 113
-267 230 -545 116 -278 227 -541 245 -585 19 -44 68 -160 109 -258 42 -99 76
-181 76 -184 0 -2 9 -23 19 -46 20 -44 37 -84 330 -787 100 -239 190 -455 201
-480 33 -77 75 -179 135 -325 31 -77 63 -153 71 -170 7 -16 52 -124 100 -240
47 -115 95 -229 105 -252 11 -23 19 -45 19 -48 0 -3 9 -25 19 -48 11 -23 38
-89 61 -147 23 -58 48 -121 57 -140 8 -19 19 -44 24 -55 4 -11 17 -42 27 -70
24 -61 109 -268 127 -310 19 -43 132 -326 165 -417 l29 -76 -42 -5 c-46 -6
-4794 0 -5722 7 -313 2 -837 5 -1162 7 -326 1 -593 4 -593 7 0 3 44 105 85
197 7 17 28 64 45 105 17 41 42 99 56 128 13 29 24 55 24 57 0 2 11 28 24 57
13 29 36 82 51 118 15 36 35 83 45 105 10 22 46 105 80 185 34 80 70 163 80
185 10 22 39 90 64 150 26 61 53 124 61 140 7 17 85 197 173 400 88 204 169
393 181 420 12 28 26 59 31 70 4 11 15 36 23 55 9 19 32 73 52 120 20 47 42
99 50 115 7 17 63 147 124 290 62 143 119 275 128 294 8 19 28 64 43 100 31
74 214 500 235 546 8 17 44 100 80 185 37 85 73 169 80 185 8 17 57 131 110
255 53 124 103 239 110 255 8 17 46 104 85 195 40 90 80 183 90 205 10 22 43
99 73 170 31 72 66 153 78 180 13 28 24 52 24 55 1 3 10 23 20 45 9 22 46 107
81 189 36 82 71 163 79 180 7 17 66 150 129 296 124 289 135 313 164 380 11
25 55 126 97 225 43 99 90 208 106 243 16 35 29 65 29 67 0 3 11 28 24 57 14
29 52 118 87 198 68 161 86 202 119 275 12 28 58 133 102 235 44 102 93 213
109 248 16 35 29 65 29 67 0 3 42 99 71 160 15 33 149 336 171 388 11 26 22
47 23 47 2 0 37 -82 80 -182z"/>
</g>
</svg>
